<?xml version="1.0" encoding="utf-8"?>
<!-- Generator: Adobe Illustrator 24.1.1, SVG Export Plug-In . SVG Version: 6.00 Build 0)  -->
<svg version="1.1" id="Layer_1" xmlns="http://www.w3.org/2000/svg" xmlns:xlink="http://www.w3.org/1999/xlink" x="0px" y="0px"
	 viewBox="0 0 2500 2197" style="enable-background:new 0 0 2500 2197;" xml:space="preserve">
<path d="M761.4,786.7l474.3-273.8c11.9-6.9,26.5-6.9,38.4,0l474.3,273.8c11.9,6.9,19.2,19.5,19.2,33.2v547.6
	c0,13.7-7.3,26.4-19.2,33.2l-474.3,273.8c-11.9,6.9-26.5,6.9-38.4,0l-474.3-273.8c-11.9-6.9-19.2-19.5-19.2-33.2V819.9
	C742.3,806.2,749.6,793.6,761.4,786.7"/>
<path d="M2484.4,1048.9L1917.1,62c-20.6-35.7-58.7-62-99.9-62H682.7c-41.2,0-79.3,26.3-99.9,62L15.6,1046.7
	c-20.6,35.7-20.6,80.7,0,116.4l567.2,978.8c20.6,35.7,58.7,53.9,99.9,53.9h1134.5c41.2,0,79.3-17.7,99.9-53.4l567.3-980.4
	C2505,1126.4,2505,1084.5,2484.4,1048.9L2484.4,1048.9z M2014.7,1523.4c0,14.5-8.7,27.9-21.3,35.2l-722.6,416.9
	c-12.7,7.3-28.2,7.3-40.9,0l-723.1-416.9c-12.6-7.3-21.4-20.7-21.4-35.2V689.6c0-14.5,8.7-27.9,21.2-35.2l722.5-416.9
	c12.7-7.3,28.2-7.3,40.9,0l723.2,416.9c12.6,7.3,21.4,20.7,21.4,35.2L2014.7,1523.4L2014.7,1523.4z"/>
</svg>
