<?xml version="1.0" encoding="utf-8"?>
<!-- Generator: Adobe Illustrator 24.1.1, SVG Export Plug-In . SVG Version: 6.00 Build 0)  -->
<svg version="1.1" id="Layer_1" xmlns="http://www.w3.org/2000/svg" xmlns:xlink="http://www.w3.org/1999/xlink" x="0px" y="0px"
	 viewBox="0 0 480 480" style="enable-background:new 0 0 480 480;" xml:space="preserve">
<style type="text/css">
	.st0{fill:#565656;}
	.st1{fill:#DDDDDD;}
	.st2{fill:#FFFFFF;}
	.st3{fill:#D6D6D6;}
</style>
<path d="M420,173c0,205-180,267-180,267S60,378,60,173c0-25,2-46,4-63c3-25,20-45,44-51c31-9,80-19,132-19s101,10,133,19
	c24,6,41,27,44,51C418,127,420,149,420,173z"/>
<path class="st0" d="M240,70c49,0,95,10,125,18c12,3,20,13,22,26c2,19,3,39,3,59c0,156-115,219-150,234c-35-16-150-79-150-234
	c0-20,1-40,3-59c1-13,10-23,22-26C145,80,191,70,240,70 M240,40c-52,0-101,10-133,19c-23,6-41,27-43,51c-2,17-4,39-4,63
	c0,205,180,267,180,267s180-62,180-267c0-25-2-46-4-63c-3-25-20-45-44-51C341,50,292,40,240,40L240,40z"/>
<path class="st1" d="M230,280h20v80h-20V280z"/>
<path class="st2" d="M240,100c0,0-60,50-60,130c0,52,33,85,50,100l10-30l10,30c17-15,50-48,50-100C300,150,240,100,240,100z"/>
<path class="st3" d="M240,100c0,0-60,50-60,130c0,52,33,85,50,100l10-30V100z"/>
</svg>
