<?xml version="1.0" encoding="utf-8"?>
<!-- Generator: Adobe Illustrator 24.1.1, SVG Export Plug-In . SVG Version: 6.00 Build 0)  -->
<svg version="1.1" id="Layer_1" xmlns="http://www.w3.org/2000/svg" xmlns:xlink="http://www.w3.org/1999/xlink" x="0px" y="0px"
	 viewBox="0 0 2500 2500" style="enable-background:new 0 0 2500 2500;" xml:space="preserve">
<style type="text/css">
	.st0{opacity:0.5;enable-background:new    ;}
</style>
<g id="Page-1">
	<g id="prettier-icon-dark">
		<g id="Icon-_x28_Dark_x29_">
			<g id="Group">
				<path id="Rectangle" d="M1845.2,476.2h119c33.3,0,59.5,26.2,59.5,59.5s-26.2,59.5-59.5,59.5h-119c-33.3,0-59.5-26.2-59.5-59.5
					S1811.9,476.2,1845.2,476.2z"/>
				<path id="Rectangle_1_" d="M59.5,2381h595.2c33.3,0,59.5,26.2,59.5,59.5c0,33.3-26.2,59.5-59.5,59.5H59.5
					c-33.3,0-59.5-26.2-59.5-59.5C0,2407.1,26.2,2381,59.5,2381z"/>
				<path id="Rectangle_2_" d="M1488.1,1428.6h357.1c33.3,0,59.5,26.2,59.5,59.5s-26.2,59.5-59.5,59.5h-357.1
					c-33.3,0-59.5-26.2-59.5-59.5S1454.8,1428.6,1488.1,1428.6z"/>
				<path id="Rectangle_3_" d="M773.8,1428.6H1250c33.3,0,59.5,26.2,59.5,59.5s-26.2,59.5-59.5,59.5H773.8
					c-33.3,0-59.5-26.2-59.5-59.5S740.5,1428.6,773.8,1428.6z"/>
				<path id="Rectangle_4_" d="M59.5,1428.6h476.2c33.3,0,59.5,26.2,59.5,59.5s-26.2,59.5-59.5,59.5H59.5
					c-33.3,0-59.5-26.2-59.5-59.5S26.2,1428.6,59.5,1428.6z"/>
				<path id="Rectangle_5_" d="M59.5,1904.8h595.2c33.3,0,59.5,26.2,59.5,59.5s-26.2,59.5-59.5,59.5H59.5
					c-33.3,0-59.5-26.2-59.5-59.5S26.2,1904.8,59.5,1904.8z"/>
				<path id="Rectangle_6_" d="M59.5,952.4h595.2c33.3,0,59.5,26.2,59.5,59.5s-26.2,59.5-59.5,59.5H59.5
					c-33.3,0-59.5-26.2-59.5-59.5S26.2,952.4,59.5,952.4z"/>
				<path id="Rectangle_7_" d="M654.8,238.1h1190.5c33.3,0,59.5,26.2,59.5,59.5s-26.2,59.5-59.5,59.5H654.8
					c-33.3,0-59.5-26.2-59.5-59.5S621.4,238.1,654.8,238.1z"/>
				<path id="Rectangle_8_" d="M59.5,238.1h357.1c33.3,0,59.5,26.2,59.5,59.5s-26.2,59.5-59.5,59.5H59.5C26.2,357.1,0,331,0,297.6
					S26.2,238.1,59.5,238.1z"/>
				<path id="Rectangle_9_" d="M535.7,2142.9h119c33.3,0,59.5,26.2,59.5,59.5c0,33.3-26.2,59.5-59.5,59.5h-119
					c-33.3,0-59.5-26.2-59.5-59.5C476.2,2169,502.4,2142.9,535.7,2142.9z"/>
				<path id="Rectangle_10_" d="M535.7,714.3h119c33.3,0,59.5,26.2,59.5,59.5s-26.2,59.5-59.5,59.5h-119
					c-33.3,0-59.5-26.2-59.5-59.5S502.4,714.3,535.7,714.3z"/>
				<path id="Rectangle_11_" d="M59.5,2142.9h238.1c33.3,0,59.5,26.2,59.5,59.5c0,33.3-26.2,59.5-59.5,59.5H59.5
					c-33.3,0-59.5-26.2-59.5-59.5C0,2169,26.2,2142.9,59.5,2142.9z"/>
				<path id="Rectangle_12_" d="M59.5,714.3h238.1c33.3,0,59.5,26.2,59.5,59.5s-26.2,59.5-59.5,59.5H59.5
					C26.2,833.3,0,807.1,0,773.8S26.2,714.3,59.5,714.3z"/>
				<path id="Rectangle_13_" class="st0" d="M1607.1,2142.9h119c33.3,0,59.5,26.2,59.5,59.5c0,33.3-26.2,59.5-59.5,59.5h-119
					c-33.3,0-59.5-26.2-59.5-59.5C1547.6,2169,1573.8,2142.9,1607.1,2142.9z"/>
				<path id="Rectangle_14_" class="st0" d="M892.9,2142.9H1369c33.3,0,59.5,26.2,59.5,59.5c0,33.3-26.2,59.5-59.5,59.5H892.9
					c-33.3,0-59.5-26.2-59.5-59.5C833.3,2169,859.5,2142.9,892.9,2142.9z"/>
				<path id="Rectangle_15_" class="st0" d="M1964.3,2142.9h476.2c33.3,0,59.5,26.2,59.5,59.5c0,33.3-26.2,59.5-59.5,59.5h-476.2
					c-33.3,0-59.5-26.2-59.5-59.5C1904.8,2169,1931,2142.9,1964.3,2142.9z"/>
				<path id="Rectangle_16_" d="M1011.9,1190.5h952.4c33.3,0,59.5,26.2,59.5,59.5s-26.2,59.5-59.5,59.5h-952.4
					c-33.3,0-59.5-26.2-59.5-59.5S978.6,1190.5,1011.9,1190.5z"/>
				<path id="Rectangle_17_" d="M416.7,1190.5h357.1c33.3,0,59.5,26.2,59.5,59.5s-26.2,59.5-59.5,59.5H416.7
					c-33.3,0-59.5-26.2-59.5-59.5S383.3,1190.5,416.7,1190.5z"/>
				<path id="Rectangle_18_" d="M59.5,1190.5h119c33.3,0,59.5,26.2,59.5,59.5s-26.2,59.5-59.5,59.5h-119
					c-33.3,0-59.5-26.2-59.5-59.5S26.2,1190.5,59.5,1190.5z"/>
				<path id="Rectangle_19_" d="M1131,476.2h476.2c33.3,0,59.5,26.2,59.5,59.5s-26.2,59.5-59.5,59.5H1131
					c-33.3,0-59.5-26.2-59.5-59.5S1097.6,476.2,1131,476.2z"/>
				<path id="Rectangle_20_" d="M59.5,476.2h833.3c33.3,0,59.5,26.2,59.5,59.5s-26.2,59.5-59.5,59.5H59.5C26.2,595.2,0,569,0,535.7
					S26.2,476.2,59.5,476.2z"/>
				<path id="Rectangle_21_" d="M416.7,1666.7h1071.4c33.3,0,59.5,26.2,59.5,59.5s-26.2,59.5-59.5,59.5H416.7
					c-33.3,0-59.5-26.2-59.5-59.5S383.3,1666.7,416.7,1666.7z"/>
				<path id="Rectangle_22_" d="M59.5,1666.7h119c33.3,0,59.5,26.2,59.5,59.5s-26.2,59.5-59.5,59.5h-119
					c-33.3,0-59.5-26.2-59.5-59.5S26.2,1666.7,59.5,1666.7z"/>
				<path id="Rectangle_23_" d="M1488.1,714.3h595.2c33.3,0,59.5,26.2,59.5,59.5s-26.2,59.5-59.5,59.5h-595.2
					c-33.3,0-59.5-26.2-59.5-59.5S1454.8,714.3,1488.1,714.3z"/>
				<path id="Rectangle_24_" d="M1488.1,952.4h595.2c33.3,0,59.5,26.2,59.5,59.5s-26.2,59.5-59.5,59.5h-595.2
					c-33.3,0-59.5-26.2-59.5-59.5S1454.8,952.4,1488.1,952.4z"/>
				<path id="Rectangle_25_" d="M59.5,0h1428.6c33.3,0,59.5,26.2,59.5,59.5s-26.2,59.5-59.5,59.5H59.5C26.2,119,0,92.9,0,59.5
					S26.2,0,59.5,0z"/>
				<path id="Rectangle_26_" class="st0" d="M1726.2,0h714.3c33.3,0,59.5,26.2,59.5,59.5s-26.2,59.5-59.5,59.5h-714.3
					c-33.3,0-59.5-26.2-59.5-59.5S1692.9,0,1726.2,0z"/>
				<path id="Rectangle_27_" class="st0" d="M1726.2,1666.7h238.1c33.3,0,59.5,26.2,59.5,59.5s-26.2,59.5-59.5,59.5h-238.1
					c-33.3,0-59.5-26.2-59.5-59.5S1692.9,1666.7,1726.2,1666.7z"/>
				<path id="Rectangle_28_" class="st0" d="M2202.4,1666.7h238.1c33.3,0,59.5,26.2,59.5,59.5s-26.2,59.5-59.5,59.5h-238.1
					c-33.3,0-59.5-26.2-59.5-59.5S2169,1666.7,2202.4,1666.7z"/>
				<path id="Rectangle_29_" class="st0" d="M2083.3,1428.6h357.1c33.3,0,59.5,26.2,59.5,59.5s-26.2,59.5-59.5,59.5h-357.1
					c-33.3,0-59.5-26.2-59.5-59.5S2050,1428.6,2083.3,1428.6z"/>
				<path id="Rectangle_30_" class="st0" d="M2083.3,238.1h357.1c33.3,0,59.5,26.2,59.5,59.5s-26.2,59.5-59.5,59.5h-357.1
					c-33.3,0-59.5-26.2-59.5-59.5S2050,238.1,2083.3,238.1z"/>
				<path id="Rectangle_31_" class="st0" d="M2202.4,1190.5h238.1c33.3,0,59.5,26.2,59.5,59.5s-26.2,59.5-59.5,59.5h-238.1
					c-33.3,0-59.5-26.2-59.5-59.5S2169,1190.5,2202.4,1190.5z"/>
				<path id="Rectangle_32_" class="st0" d="M2202.4,476.2h238.1c33.3,0,59.5,26.2,59.5,59.5s-26.2,59.5-59.5,59.5h-238.1
					c-33.3,0-59.5-26.2-59.5-59.5S2169,476.2,2202.4,476.2z"/>
				<path id="Rectangle_33_" class="st0" d="M2321.4,714.3h119c33.3,0,59.5,26.2,59.5,59.5s-26.2,59.5-59.5,59.5h-119
					c-33.3,0-59.5-26.2-59.5-59.5S2288.1,714.3,2321.4,714.3z"/>
				<path id="Rectangle_34_" class="st0" d="M2321.4,952.4h119c33.3,0,59.5,26.2,59.5,59.5s-26.2,59.5-59.5,59.5h-119
					c-33.3,0-59.5-26.2-59.5-59.5S2288.1,952.4,2321.4,952.4z"/>
				<path id="Rectangle_35_" class="st0" d="M1369,1904.8h1071.4c33.3,0,59.5,26.2,59.5,59.5s-26.2,59.5-59.5,59.5H1369
					c-33.3,0-59.5-26.2-59.5-59.5S1335.7,1904.8,1369,1904.8z"/>
				<path id="Rectangle_36_" class="st0" d="M892.9,1904.8H1131c33.3,0,59.5,26.2,59.5,59.5s-26.2,59.5-59.5,59.5H892.9
					c-33.3,0-59.5-26.2-59.5-59.5S859.5,1904.8,892.9,1904.8z"/>
				<path id="Rectangle_37_" class="st0" d="M1845.2,2381h595.2c33.3,0,59.5,26.2,59.5,59.5c0,33.3-26.2,59.5-59.5,59.5h-595.2
					c-33.3,0-59.5-26.2-59.5-59.5C1785.7,2407.1,1811.9,2381,1845.2,2381z"/>
				<path id="Rectangle_38_" class="st0" d="M892.9,2381h714.3c33.3,0,59.5,26.2,59.5,59.5c0,33.3-26.2,59.5-59.5,59.5H892.9
					c-33.3,0-59.5-26.2-59.5-59.5C833.3,2407.1,859.5,2381,892.9,2381z"/>
				<path id="Rectangle_39_" class="st0" d="M892.9,714.3H1250c33.3,0,59.5,26.2,59.5,59.5s-26.2,59.5-59.5,59.5H892.9
					c-33.3,0-59.5-26.2-59.5-59.5S859.5,714.3,892.9,714.3z"/>
				<path id="Rectangle_40_" class="st0" d="M892.9,952.4H1250c33.3,0,59.5,26.2,59.5,59.5s-26.2,59.5-59.5,59.5H892.9
					c-33.3,0-59.5-26.2-59.5-59.5S859.5,952.4,892.9,952.4z"/>
			</g>
		</g>
	</g>
</g>
</svg>
