<?xml version="1.0" encoding="utf-8"?>
<!-- Generator: Adobe Illustrator 24.1.1, SVG Export Plug-In . SVG Version: 6.00 Build 0)  -->
<svg version="1.1" id="Layer_1" xmlns="http://www.w3.org/2000/svg" xmlns:xlink="http://www.w3.org/1999/xlink" x="0px" y="0px"
	 viewBox="0 0 1366 768" style="enable-background:new 0 0 1366 768;" xml:space="preserve">
<style type="text/css">
	.st0{fill:url(#SVGID_1_);}
	.st1{opacity:0.8;fill:url(#SVGID_2_);}
	.st2{fill:#FFFFFF;stroke:#000000;stroke-miterlimit:10;}
	.st3{fill:#0029B9;stroke:#000000;stroke-miterlimit:10;}
	.st4{fill:url(#SVGID_3_);}
	.st5{fill:url(#SVGID_4_);}
	.st6{fill:url(#SVGID_5_);}
	.st7{fill:url(#SVGID_6_);}
</style>
<linearGradient id="SVGID_1_" gradientUnits="userSpaceOnUse" x1="-0.5" y1="334.25" x2="1366" y2="334.25">
	<stop  offset="0.1409" style="stop-color:#270082"/>
	<stop  offset="0.5246" style="stop-color:#3D07BC"/>
	<stop  offset="0.8384" style="stop-color:#4D0BE4"/>
	<stop  offset="1" style="stop-color:#530DF4"/>
</linearGradient>
<path class="st0" d="M1193.5-0.5c19.4,0.3,35.1,0.4,45.5,0.5c14.2,0.1,13,0,69,0c0,0,40.7,0,43,0c15,0,15,0,15,0c0,0,0,3.4,0,10
	c0,0,0,9.7,0,29c0,46,0,46,0,46c-2,22.2-7.7,55.3-25,91c-22.7,46.9-54.4,75.5-78,95c-113.6,94.1-226,141-226,141
	c-179.5,71.8-336.2,120.6-459,154c-203.7,55.5-341.5,76.1-375,81c-81.8,11.9-151.4,18.3-203,22C-0.2,445.8-0.3,222.7-0.5-0.5H1193.5
	z"/>
<linearGradient id="SVGID_2_" gradientUnits="userSpaceOnUse" x1="-3.0285" y1="313.6835" x2="430.4381" y2="256.7623">
	<stop  offset="0" style="stop-color:#3B3B3B;stop-opacity:0.1"/>
	<stop  offset="0.2963" style="stop-color:#432B7A;stop-opacity:0.3667"/>
	<stop  offset="0.6307" style="stop-color:#4C1BBC;stop-opacity:0.6676"/>
	<stop  offset="0.8745" style="stop-color:#5111E4;stop-opacity:0.8871"/>
	<stop  offset="1" style="stop-color:#530DF4"/>
</linearGradient>
<path class="st1" d="M-5,169.7c0,0,278-25.3,401,0S289,417,289,417S47.3,466.3-5,417"/>
<image style="overflow:visible;opacity:0.1;" width="512" height="512" xlink:href="../../../../Downloads/25442.png"  transform="matrix(0.3906 0 0 0.3906 192 12)">
</image>
<image style="overflow:visible;opacity:0.1;" width="512" height="512" xlink:href="../../../../Downloads/code-512.png"  transform="matrix(0.3066 0 0 0.3066 57 431)">
</image>
<image style="overflow:visible;opacity:4.000000e-02;" width="256" height="256" xlink:href="../../../../Downloads/js-outline.png"  transform="matrix(1 0 0 1 914 35)">
</image>
<image style="overflow:visible;opacity:5.000000e-02;" width="2048" height="2048" xlink:href="../../../../Downloads/82854_html5_4096x4096.png"  transform="matrix(0.1211 0 0 0.1211 436 197)">
</image>
<image style="overflow:visible;opacity:7.000000e-02;" width="834" height="980" xlink:href="../../../../Downloads/495-4955744_css-logo-png-css-logo-black-and-white.png"  transform="matrix(7.194245e-02 0 0 7.194245e-02 706 341)">
</image>
<path class="st2" d="M1399.5,111.5"/>
<path class="st2" d="M1392.5,42.5"/>
<path class="st3" d="M1412.5,218.5"/>
<linearGradient id="SVGID_3_" gradientUnits="userSpaceOnUse" x1="1031" y1="964" x2="1031" y2="964">
	<stop  offset="0.1409" style="stop-color:#270082"/>
	<stop  offset="0.5246" style="stop-color:#3D07BC"/>
	<stop  offset="0.8384" style="stop-color:#4D0BE4"/>
	<stop  offset="1" style="stop-color:#530DF4"/>
</linearGradient>
<path class="st4" d="M1031,964"/>
<linearGradient id="SVGID_4_" gradientUnits="userSpaceOnUse" x1="-81" y1="210" x2="-81" y2="210">
	<stop  offset="0.1409" style="stop-color:#270082"/>
	<stop  offset="0.5246" style="stop-color:#3D07BC"/>
	<stop  offset="0.8384" style="stop-color:#4D0BE4"/>
	<stop  offset="1" style="stop-color:#530DF4"/>
</linearGradient>
<path class="st5" d="M-81,210"/>
<linearGradient id="SVGID_5_" gradientUnits="userSpaceOnUse" x1="1240" y1="311" x2="1240" y2="311">
	<stop  offset="0.1409" style="stop-color:#270082"/>
	<stop  offset="0.5246" style="stop-color:#3D07BC"/>
	<stop  offset="0.8384" style="stop-color:#4D0BE4"/>
	<stop  offset="1" style="stop-color:#530DF4"/>
</linearGradient>
<path class="st6" d="M1240,311"/>
<linearGradient id="SVGID_6_" gradientUnits="userSpaceOnUse" x1="1366" y1="0" x2="1366" y2="0">
	<stop  offset="0.1409" style="stop-color:#270082"/>
	<stop  offset="0.5246" style="stop-color:#3D07BC"/>
	<stop  offset="0.8384" style="stop-color:#4D0BE4"/>
	<stop  offset="1" style="stop-color:#530DF4"/>
</linearGradient>
<path class="st7" d="M1366,0"/>
</svg>
