<?xml version="1.0" encoding="utf-8"?>
<!-- Generator: Adobe Illustrator 24.1.1, SVG Export Plug-In . SVG Version: 6.00 Build 0)  -->
<svg version="1.1" id="Layer_1" xmlns="http://www.w3.org/2000/svg" xmlns:xlink="http://www.w3.org/1999/xlink" x="0px" y="0px"
	 viewBox="0 0 2500 1504" style="enable-background:new 0 0 2500 1504;" xml:space="preserve">
<path d="M1250,2C916.7,2,708.3,168.7,625,502c125-166.7,270.8-229.2,437.5-187.5c95.1,23.8,163.1,92.8,238.3,169.1
	C1423.3,608,1565.2,752,1875,752c333.3,0,541.7-166.7,625-500c-125,166.7-270.8,229.2-437.5,187.5
	c-95.1-23.8-163.1-92.8-238.3-169.1C1701.7,146,1559.8,2,1250,2z M625,752C291.7,752,83.3,918.7,0,1252
	c125-166.7,270.8-229.2,437.5-187.5c95.1,23.8,163.1,92.8,238.3,169.1C798.3,1358,940.2,1502,1250,1502c333.3,0,541.7-166.7,625-500
	c-125,166.7-270.8,229.2-437.5,187.5c-95.1-23.8-163.1-92.8-238.3-169.1C1076.7,896,934.8,752,625,752z"/>
</svg>
